<svg viewBox="0 0 1378.66 844.88" xmlns="http://www.w3.org/2000/svg"><g fill="#003e40"><rect height="9.07" rx="4.53" width="31.21" x="1088.79" y="166.36"/><path d="m69.96 688.65-3.73-4.98c-.71-.95-1.84-1.52-3.03-1.51-2.09-.03-3.8 1.64-3.83 3.72-.01.84.26 1.66.77 2.33l3.79 4.98c.71.94 1.82 1.49 2.99 1.5 2.09 0 3.78-1.69 3.78-3.77 0-.82-.26-1.61-.75-2.27z"/><path d="m995.7 595.54-3.74-4.98c-.71-.95-1.82-1.51-3.01-1.51-2.09 0-3.77 1.71-3.76 3.79 0 .82.27 1.61.77 2.26l3.79 5c.71.93 1.82 1.48 2.99 1.48 2.09-.04 3.75-1.76 3.71-3.84-.01-.79-.28-1.56-.75-2.2z"/><path d="m570.17 759.27 12.97-17.49c.71-.95 1.84-1.52 3.03-1.51h.73c2.09 0 3.78 1.69 3.78 3.77 0 .82-.26 1.61-.75 2.27l-13.14 17.41c-.71.95-1.82 1.51-3.01 1.51h-.63c-2.09-.06-3.73-1.8-3.67-3.89.02-.74.26-1.46.69-2.07z"/><path d="m1150.43 485.16 13.02-17.49c.71-.96 1.83-1.53 3.03-1.53h.73c2.09 0 3.78 1.69 3.78 3.77 0 .82-.26 1.61-.75 2.27l-13.14 17.6c-.71.94-1.83 1.5-3.01 1.5h-.64c-2.08.04-3.79-1.61-3.84-3.68-.02-.88.27-1.74.82-2.43z"/><path d="m213.47 113.43-13.02-17.49c-.71-.95-1.84-1.52-3.03-1.51h-.71c-2.09 0-3.78 1.69-3.78 3.77 0 .82.26 1.61.75 2.27l13.14 17.49c.71.95 1.82 1.51 3.01 1.51h.63c2.09 0 3.77-1.7 3.76-3.79 0-.81-.27-1.6-.75-2.25z"/><rect height="45.05" rx="4.44" width="8.88" x="612.67" y="351.05"/><path d="m11.26 412.71 3.74-4.98c.71-.95 1.82-1.51 3.01-1.51 2.09 0 3.78 1.69 3.78 3.78 0 .82-.27 1.62-.77 2.28l-3.81 5c-.71.93-1.82 1.48-2.99 1.48-2.09-.04-3.75-1.76-3.71-3.84.01-.79.28-1.56.75-2.2z"/><circle cx="1302.85" cy="471.09" r="6.27"/><circle cx="829.87" cy="59.74" r="6.27"/><circle cx="1146.16" cy="800.04" r="6.27"/><circle cx="451.37" cy="599.66" r="6.27"/><circle cx="466.69" cy="264.12" r="6.27"/><circle cx="1105.99" cy="57.3" r="6.27"/><circle cx="579.7" cy="157.73" r="6.27"/><circle cx="234.67" cy="167.77" r="6.27"/><circle cx="86.83" cy="619.28" r="6.27"/><path d="m1133.21 363.99v.19c0 2.45-1.99 4.44-4.44 4.44h-71.37c-2.45 0-4.44-1.99-4.44-4.44v-.19c0-2.45 1.99-4.44 4.44-4.44h71.37c2.45 0 4.44 1.99 4.44 4.44z"/><path d="m376 786.65v.19c0 2.45-1.99 4.44-4.44 4.44h-71.37c-2.45 0-4.44-1.99-4.44-4.44v-.19c0-2.42 1.93-4.39 4.35-4.44h71.37c2.45-.05 4.48 1.9 4.53 4.35z"/><path d="m770.38 322.92v.19c0 2.45-1.99 4.44-4.44 4.44h-71.39c-2.45 0-4.44-1.99-4.44-4.44v-.19c0-2.45 1.99-4.44 4.44-4.44h71.37c2.45 0 4.45 1.97 4.46 4.42z"/><path d="m250.66 210.12v.19c0 2.45-1.99 4.44-4.44 4.44h-71.37c-2.45 0-4.44-1.99-4.44-4.44v-.19c0-2.45 1.99-4.44 4.44-4.44h71.37c2.45 0 4.44 1.99 4.44 4.44z"/><path d="m907.53 686.47v.19c0 2.45-1.99 4.44-4.44 4.44h-71.37c-2.45 0-4.44-1.99-4.44-4.44v-.19c0-2.45 1.99-4.44 4.44-4.44h71.37c2.45 0 4.44 1.99 4.44 4.44z"/><path d="m726.93 193.15c0-24.23 19.64-43.87 43.87-43.87s43.87 19.64 43.87 43.87-19.64 43.87-43.87 43.87c-24.22-.02-43.85-19.65-43.87-43.87zm78.33 0c0-19.06-15.45-34.52-34.52-34.52-19.06 0-34.52 15.45-34.52 34.52s15.45 34.52 34.52 34.52c19.08 0 34.55-15.44 34.57-34.52z"/><path d="m1027.72 462.62c0-24.23 19.64-43.87 43.87-43.87s43.87 19.64 43.87 43.87-19.64 43.87-43.87 43.87c-24.22-.02-43.85-19.65-43.87-43.87zm78.33 0c0-19.06-15.45-34.52-34.52-34.52s-34.52 15.45-34.52 34.52c0 19.06 15.45 34.52 34.52 34.52 19.08 0 34.55-15.44 34.57-34.52z"/><path d="m691.42 719.55c0-24.23 19.64-43.87 43.87-43.87s43.87 19.64 43.87 43.87-19.64 43.87-43.87 43.87c-24.22-.02-43.85-19.65-43.87-43.87zm78.33 0c0-19.06-15.45-34.52-34.52-34.52-19.06 0-34.52 15.45-34.52 34.52s15.45 34.52 34.52 34.52c19.08 0 34.55-15.44 34.57-34.52z"/><path d="m250.66 387.42c0-24.23 19.64-43.87 43.87-43.87s43.87 19.64 43.87 43.87-19.64 43.87-43.87 43.87c-24.22-.02-43.85-19.65-43.87-43.87zm78.33 0c.03-19.06-15.4-34.54-34.47-34.57-19.06-.03-34.54 15.4-34.57 34.47-.03 19.06 15.4 34.54 34.47 34.57h.1c19.02-.05 34.42-15.45 34.47-34.47z"/><rect height="8.88" rx="4.44" width="45.05" x="1303.46" y="431.28"/><rect height="8.88" rx="4.44" width="45.05" x="907.48" y="560.27"/><rect height="8.88" rx="4.44" width="45.05" x="571.55" y="565.61"/><path d="m668.7 55.29h11.12c2.45 0 4.44 1.99 4.44 4.44 0 2.45-1.99 4.44-4.44 4.44h-11.12c-2.45 0-4.44-1.99-4.44-4.44 0-2.45 1.99-4.44 4.44-4.44z"/><path d="m819.1 105.42h11.12c2.45 0 4.44 1.99 4.44 4.44 0 2.45-1.99 4.44-4.44 4.44h-11.12c-2.45 0-4.44-1.99-4.44-4.44 0-2.45 1.99-4.44 4.44-4.44z"/><rect height="8.88" rx="4.44" width="20" x="694.39" y="443.82"/><rect height="8.88" rx="4.44" width="20" x="288.26" y="547.74"/><rect height="8.88" rx="4.44" width="20" x="50.13" y="644.35"/><path d="m167.37 698.14h11.12c2.45 0 4.44 1.99 4.44 4.44 0 2.45-1.99 4.44-4.44 4.44h-11.12c-2.45 0-4.44-1.99-4.44-4.44 0-2.45 1.99-4.44 4.44-4.44z"/><path d="m235.1 773.34h11.12c2.45 0 4.44 1.99 4.44 4.44 0 2.45-1.99 4.44-4.44 4.44h-11.12c-2.45 0-4.44-1.99-4.44-4.44 0-2.45 1.99-4.44 4.44-4.44z"/><path d="m614.13 694.48h11.12c2.45 0 4.44 1.99 4.44 4.44 0 2.45-1.99 4.44-4.44 4.44h-11.12c-2.45 0-4.44-1.99-4.44-4.44 0-2.45 1.99-4.44 4.44-4.44z"/><path d="m1002.66 694.48h11.12c2.45 0 4.44 1.99 4.44 4.44 0 2.45-1.99 4.44-4.44 4.44h-11.12c-2.45 0-4.44-1.99-4.44-4.44 0-2.45 1.99-4.44 4.44-4.44z"/><path d="m1210.68 778.44h11.12c2.45 0 4.44 1.99 4.44 4.44 0 2.45-1.99 4.44-4.44 4.44h-11.12c-2.45 0-4.44-1.99-4.44-4.44 0-2.45 1.99-4.44 4.44-4.44z"/><rect height="8.88" rx="4.44" width="20" x="1198.75" y="431.28"/><path d="m1221.64 53.28h11.12c2.45 0 4.44 1.99 4.44 4.44 0 2.45-1.99 4.44-4.44 4.44h-11.12c-2.45 0-4.44-1.99-4.44-4.44 0-2.45 1.99-4.44 4.44-4.44z"/><rect height="8.88" rx="4.44" width="20" x="1299.02" y="309.61"/><rect height="9.07" rx="4.44" width="31.21" x="545.32" y="397.15"/><rect height="9.07" rx="4.44" width="31.21" x="150.4" y="431.28"/><rect height="9.07" rx="4.44" width="31.21" x="943.77" y="628.75"/><rect height="9.07" rx="4.44" width="31.21" x="614.13" y="619.28"/><rect height="9.07" rx="4.44" width="31.21" x="106.65" y="133.95"/><rect height="9.07" rx="4.44" width="31.21" x="1115.46" y="531.55"/><rect height="9.07" rx="4.44" width="31.21" x="495.18" y="710.48"/><rect height="9.07" rx="4.44" width="31.21" x="996.51" y="268.35"/><rect height="9.07" rx="4.44" width="31.21" x="486.83" y="129.32"/><path d="m872.7 0h.19c2.45 0 4.44 1.99 4.44 4.44v71.47c0 2.45-1.99 4.44-4.44 4.44h-.19c-2.45 0-4.44-1.99-4.44-4.44v-71.47c0-2.45 1.99-4.44 4.44-4.44z"/><path d="m108.17 669.41h.19c2.45 0 4.44 1.99 4.44 4.44v71.47c0 2.45-1.99 4.44-4.44 4.44h-.19c-2.45 0-4.44-1.99-4.44-4.44v-71.47c0-2.45 1.99-4.44 4.44-4.44z"/><path d="m352.88 80.35h.19c2.45 0 4.44 1.99 4.44 4.44v71.47c0 2.45-1.99 4.44-4.44 4.44h-.19c-2.45 0-4.44-1.99-4.44-4.44v-71.47c0-2.45 1.99-4.44 4.44-4.44z"/><path d="m872.7 476.26h.19c2.45 0 4.44 1.99 4.44 4.44v71.47c0 2.45-1.99 4.44-4.44 4.44h-.19c-2.45 0-4.44-1.99-4.44-4.44v-71.47c0-2.45 1.99-4.44 4.44-4.44z"/><path d="m1157.58 664.26h.19c2.45 0 4.44 1.99 4.44 4.44v71.47c0 2.45-1.99 4.44-4.44 4.44h-.19c-2.45 0-4.44-1.99-4.44-4.44v-71.47c0-2.45 1.99-4.44 4.44-4.44z"/><path d="m509.3 579.68h.19c2.45 0 4.44 1.99 4.44 4.44v71.47c0 2.45-1.99 4.44-4.44 4.44h-.19c-2.45 0-4.44-1.99-4.44-4.44v-71.47c0-2.45 1.99-4.44 4.44-4.44z"/><path d="m1223.63 105.42h.19c2.45 0 4.44 1.99 4.44 4.44v71.47c0 2.45-1.99 4.44-4.44 4.44h-.19c-2.45 0-4.44-1.99-4.44-4.44v-71.47c0-2.45 1.99-4.44 4.44-4.44z"/><path d="m413.54 267.67c2.45 0 4.44 1.99 4.44 4.44v36.17c0 2.45-1.99 4.44-4.44 4.44-2.45 0-4.44-1.99-4.44-4.44v-36.17c0-2.45 1.99-4.44 4.44-4.44z"/><rect height="20" rx="4.44" width="8.88" x="764.53" y="448.88"/><path d="m290.27 603.25c2.45 0 4.44 1.99 4.44 4.44v11.12c0 2.45-1.99 4.44-4.44 4.44-2.45 0-4.44-1.99-4.44-4.44v-11.12c0-2.45 1.99-4.44 4.44-4.44z"/><path d="m1324.08 644.35c2.45 0 4.44 1.99 4.44 4.44v11.12c0 2.45-1.99 4.44-4.44 4.44-2.45 0-4.44-1.99-4.44-4.44v-11.12c0-2.45 1.99-4.44 4.44-4.44z"/><rect height="31.21" rx="4.44" width="9.07" x="1349.2" y="470.68"/><rect height="31.21" rx="4.44" width="9.07" x="91.2" y="287.27"/><rect height="31.21" rx="4.44" width="9.07" x="1156.52" y="55.29"/><rect height="31.21" rx="4.44" width="9.07" x="714.39" y="794.75"/><rect height="31.21" rx="4.44" width="9.07" x="1341.06" y="279.18"/><rect height="31.21" rx="4.44" width="9.07" x="680.26" y="191.45"/><path d="m438.82 368.84-3.64-4.98c-.71-.95-1.84-1.52-3.03-1.51-2.09 0-3.77 1.71-3.76 3.79 0 .82.27 1.61.77 2.26l3.79 5c.72.93 1.82 1.47 2.99 1.48 2.08-.08 3.71-1.84 3.62-3.92-.03-.77-.29-1.5-.75-2.12z"/><path d="m438.66 143.02-3.73-4.98c-.71-.95-1.84-1.52-3.03-1.51-2.09 0-3.77 1.71-3.76 3.79 0 .82.27 1.61.77 2.26l3.79 4.98c.71.94 1.82 1.49 2.99 1.5 2.09-.04 3.75-1.76 3.71-3.84-.01-.79-.28-1.56-.75-2.2z"/><path d="m427.75 213.48 13.04-17.49c.71-.96 1.83-1.53 3.03-1.53h.73c2.09 0 3.78 1.69 3.78 3.77 0 .82-.26 1.61-.75 2.27l-13.14 17.51c-.72.95-1.84 1.5-3.03 1.5h-.63c-2.09 0-3.77-1.7-3.77-3.79 0-.81.26-1.59.74-2.24z"/><path d="m350.16 450.31-3.76-4.98c-.71-.95-1.82-1.51-3.01-1.51-2.09 0-3.78 1.69-3.78 3.78 0 .82.27 1.62.77 2.28l3.76 5.08c.72.93 1.83 1.48 3.01 1.48 2.09.03 3.8-1.64 3.83-3.72.01-.87-.28-1.72-.82-2.4z"/><path d="m802.13 644.35-3.73-4.98c-.71-.95-1.84-1.52-3.03-1.51-2.09 0-3.77 1.71-3.76 3.79 0 .82.27 1.61.77 2.26l3.79 4.98c.71.94 1.82 1.49 2.99 1.5 2.09-.04 3.75-1.76 3.71-3.84-.01-.79-.28-1.56-.75-2.2z"/><path d="m261.27 324.98-3.64-4.98c-.71-.95-1.84-1.52-3.03-1.51-2.09 0-3.77 1.71-3.76 3.79 0 .82.27 1.61.77 2.26l3.79 5c.72.93 1.82 1.47 2.99 1.48 2.08-.08 3.71-1.84 3.62-3.92-.03-.77-.29-1.5-.75-2.12z"/><path d="m788.83 287.38-3.76-4.98c-.71-.95-1.82-1.51-3.01-1.51-2.09 0-3.78 1.69-3.78 3.78 0 .82.27 1.62.77 2.28l3.79 5c.72.93 1.83 1.48 3.01 1.48 2.09-.03 3.76-1.74 3.73-3.82-.01-.8-.27-1.58-.75-2.22z"/><path d="m135.93 249.78-3.64-4.98c-.71-.95-1.84-1.52-3.03-1.51-2.09 0-3.77 1.71-3.76 3.79 0 .82.27 1.61.77 2.26l3.79 5c.72.93 1.82 1.47 2.99 1.48 2.08-.08 3.71-1.84 3.62-3.92-.03-.77-.29-1.5-.75-2.12z"/><path d="m964.36 362.58-3.73-4.98c-.71-.95-1.82-1.51-3.01-1.51-2.09 0-3.78 1.69-3.78 3.78 0 .82.27 1.62.77 2.28l3.79 5c.72.93 1.83 1.48 3.01 1.48 2.09-.05 3.74-1.77 3.69-3.86-.02-.79-.28-1.55-.75-2.18z"/><path d="m912.4 758.97-3.74-4.98c-.71-.96-1.84-1.52-3.03-1.51-2.09 0-3.77 1.71-3.76 3.79 0 .82.27 1.61.77 2.26l3.79 5c.72.93 1.82 1.47 2.99 1.48 2.09-.03 3.76-1.74 3.73-3.82-.01-.8-.27-1.58-.75-2.22z"/><path d="m562.06 813.77-3.73-4.98c-.71-.95-1.84-1.52-3.03-1.51-2.09 0-3.77 1.71-3.76 3.79 0 .82.27 1.61.77 2.26l3.79 5c.72.93 1.82 1.47 2.99 1.48 2.09-.04 3.75-1.76 3.71-3.84-.01-.79-.28-1.56-.75-2.2z"/><path d="m311.4 675.91-3.73-4.98c-.71-.95-1.84-1.52-3.03-1.51-2.09 0-3.77 1.71-3.76 3.79 0 .82.27 1.61.77 2.26l3.79 5c.72.93 1.82 1.47 2.99 1.48 2.09-.04 3.75-1.76 3.71-3.84-.01-.79-.28-1.56-.75-2.2z"/><path d="m406.89 558.44-3.73-4.98c-.71-.96-1.84-1.52-3.03-1.51-2.09 0-3.77 1.71-3.76 3.79 0 .82.27 1.61.77 2.26l3.79 4.98c.71.94 1.83 1.5 3.01 1.5 2.09-.05 3.74-1.77 3.69-3.86-.02-.79-.28-1.55-.75-2.18z"/><path d="m276.48 274.84 13.04-17.51c.71-.96 1.84-1.52 3.03-1.51h.73c2.08-.01 3.77 1.66 3.78 3.74 0 .83-.27 1.64-.77 2.3l-13.13 17.49c-.71.95-1.84 1.52-3.03 1.51h-.63c-2.09 0-3.77-1.7-3.77-3.79 0-.81.26-1.59.74-2.24z"/><path d="m1208.45 707.47 13.02-17.51c.71-.95 1.84-1.52 3.03-1.51h.75c2.09 0 3.77 1.7 3.76 3.79 0 .81-.27 1.6-.75 2.25l-13.14 17.41c-.71.95-1.82 1.51-3.01 1.51h-.56c-2.08.02-3.77-1.65-3.79-3.73 0-.79.24-1.56.69-2.21z"/><path d="m715.14 512.97 13.04-17.51c.71-.96 1.84-1.52 3.03-1.51h.73c2.08-.01 3.77 1.66 3.78 3.74 0 .83-.27 1.64-.77 2.3l-13.13 17.49c-.71.95-1.84 1.52-3.03 1.51h-.63c-2.09 0-3.77-1.7-3.77-3.79 0-.81.26-1.59.74-2.24z"/><path d="m555.29 346.47 13.04-17.49c.7-.96 1.82-1.53 3.01-1.53h.75c2.09 0 3.77 1.7 3.76 3.79 0 .81-.27 1.6-.75 2.25l-13.14 17.51c-.71.94-1.83 1.5-3.01 1.5h-.63c-2.09 0-3.77-1.7-3.77-3.79 0-.81.26-1.59.74-2.24z"/><path d="m964.57 749.57 13.02-17.41c.71-.96 1.84-1.52 3.03-1.51h.73c2.09 0 3.78 1.69 3.78 3.77 0 .82-.26 1.61-.75 2.27l-13.06 17.41c-.71.96-1.84 1.52-3.03 1.51h-.63c-2.09.04-3.81-1.62-3.85-3.7-.02-.84.25-1.66.75-2.34z"/><path d="m1291.62 813.79 13.04-17.51c.71-.96 1.84-1.52 3.03-1.51h.73c2.08-.01 3.77 1.66 3.78 3.74 0 .83-.27 1.64-.77 2.3l-13.13 17.49c-.71.95-1.84 1.52-3.03 1.51h-.63c-2.09 0-3.77-1.7-3.77-3.79 0-.81.26-1.59.74-2.24z"/><path d="m1291.62 528.28 13.04-17.49c.71-.96 1.84-1.52 3.03-1.51h.73c2.08 0 3.76 1.67 3.77 3.75 0 .82-.26 1.62-.76 2.27l-13.13 17.51c-.72.94-1.84 1.5-3.03 1.5h-.63c-2.09 0-3.77-1.7-3.77-3.79 0-.81.26-1.59.74-2.24z"/><path d="m1178.87 350.04 13.04-17.51c.71-.96 1.84-1.52 3.03-1.51h.73c2.08-.01 3.77 1.66 3.78 3.74 0 .83-.27 1.64-.77 2.3l-13.13 17.49c-.71.95-1.84 1.52-3.03 1.51h-.57c-2.09.02-3.8-1.65-3.82-3.73 0-.82.25-1.63.74-2.29z"/><path d="m990.87 525.51 13.04-17.51c.71-.96 1.84-1.52 3.03-1.51h.73c2.08-.01 3.77 1.66 3.78 3.74 0 .83-.27 1.64-.77 2.3l-13.13 17.49c-.71.95-1.84 1.52-3.03 1.51h-.57c-2.09.02-3.8-1.65-3.82-3.73 0-.82.25-1.63.74-2.29z"/><path d="m305.29 738.59 13.04-17.51c.7-.96 1.82-1.52 3.01-1.51h.7c2.09 0 3.77 1.7 3.76 3.79 0 .81-.27 1.6-.75 2.25l-13.14 17.41c-.71.95-1.82 1.51-3.01 1.51h-.63c-2.09-.07-3.72-1.81-3.65-3.9.02-.73.26-1.44.68-2.04z"/><path d="m280.26 487.93 13.04-17.51c.7-.96 1.82-1.52 3.01-1.51h.75c2.09 0 3.77 1.7 3.76 3.79 0 .81-.27 1.6-.75 2.25l-13.14 17.41c-.71.95-1.82 1.51-3.01 1.51h-.63c-2.09-.04-3.75-1.76-3.71-3.85.01-.75.25-1.47.68-2.09z"/><path d="m67.16 512.99 13.04-17.51c.7-.96 1.82-1.52 3.01-1.51h.75c2.09-.03 3.8 1.63 3.83 3.72.01.84-.25 1.65-.75 2.32l-13.14 17.49c-.71.95-1.82 1.51-3.01 1.51h-.63c-2.09.03-3.8-1.63-3.84-3.72-.01-.83.25-1.64.74-2.31z"/><path d="m581.02 49.25 13.04-17.51c.7-.96 1.82-1.52 3.01-1.51h.75c2.09 0 3.77 1.7 3.76 3.79 0 .81-.27 1.6-.75 2.25l-13.14 17.49c-.71.95-1.82 1.51-3.01 1.51h-.63c-2.09 0-3.77-1.7-3.77-3.79 0-.81.26-1.59.74-2.24z"/><path d="m1036.95 64.76 13.04-17.49c.71-.96 1.83-1.53 3.03-1.53h.73c2.08-.01 3.77 1.66 3.78 3.74 0 .83-.27 1.64-.77 2.3l-13.13 17.51c-.72.94-1.84 1.5-3.03 1.5h-.63c-2.09 0-3.77-1.7-3.77-3.79 0-.81.26-1.59.74-2.24z"/><path d="m1166.29 136.98 13.04-17.51c.71-.96 1.84-1.52 3.03-1.51h.73c2.08-.01 3.77 1.66 3.78 3.74 0 .83-.27 1.64-.77 2.3l-13.13 17.41c-.71.95-1.84 1.52-3.03 1.51h-.63c-2.09-.04-3.75-1.76-3.71-3.85.01-.75.25-1.47.68-2.09z"/><path d="m1295.41 262.33 13.04-17.51c.7-.96 1.82-1.52 3.01-1.51h.75c2.09 0 3.77 1.7 3.76 3.79 0 .81-.27 1.6-.75 2.25l-13.16 17.49c-.71.95-1.82 1.51-3.01 1.51h-.63c-2.09-.01-3.77-1.72-3.75-3.8 0-.8.26-1.58.74-2.22z"/><path d="m1110.2 318.94-13.02-17.51c-.71-.95-1.84-1.52-3.03-1.51h-.75c-2.09 0-3.77 1.7-3.76 3.79 0 .81.27 1.6.75 2.25l13.23 17.49c.71.95 1.82 1.51 3.01 1.51h.47c2.08.05 3.8-1.59 3.86-3.66.02-.85-.25-1.68-.76-2.36z"/><path d="m384.04 350.06-13.04-17.51c-.7-.96-1.82-1.52-3.01-1.51h-.7c-2.09 0-3.77 1.7-3.76 3.79 0 .81.27 1.6.75 2.25l13.14 17.49c.71.95 1.82 1.51 3.01 1.51h.63c2.09-.03 3.75-1.75 3.72-3.84-.01-.79-.27-1.55-.74-2.19z"/><path d="m187.25 575.64-13.02-17.51c-.71-.95-1.84-1.52-3.03-1.51h-.75c-2.09 0-3.77 1.7-3.76 3.79 0 .81.27 1.6.75 2.25l13.14 17.49c.71.95 1.82 1.51 3.01 1.51h.63c2.09 0 3.77-1.7 3.77-3.79 0-.81-.26-1.59-.74-2.24z"/><path d="m976.84 437.79-13.04-17.51c-.71-.96-1.84-1.52-3.03-1.51h-.73c-2.08-.01-3.77 1.66-3.78 3.74 0 .83.27 1.64.77 2.3l13.13 17.49c.71.95 1.84 1.52 3.03 1.51h.63c2.09 0 3.77-1.7 3.77-3.79 0-.81-.26-1.59-.74-2.24z"/><path d="m475.51 99.38-13.04-17.51c-.71-.96-1.84-1.52-3.03-1.51h-.73c-2.08-.01-3.77 1.66-3.78 3.74 0 .83.27 1.64.77 2.3l13.13 17.41c.71.95 1.84 1.52 3.03 1.51h.63c2.09-.04 3.75-1.76 3.71-3.85-.01-.75-.25-1.47-.68-2.09z"/><path d="m1001.91 111.91-13.04-17.51c-.71-.96-1.84-1.52-3.03-1.51h-.73c-2.08-.01-3.77 1.66-3.78 3.74 0 .83.27 1.64.77 2.3l13.13 17.49c.71.95 1.84 1.52 3.03 1.51h.63c2.09 0 3.77-1.7 3.77-3.79 0-.81-.26-1.59-.74-2.24z"/><path d="m1265.51 492.7-13.02-17.49c-.71-.96-1.83-1.53-3.03-1.53h-.73c-2.09 0-3.78 1.69-3.78 3.77 0 .82.26 1.61.75 2.27l13.14 17.41c.71.95 1.82 1.51 3.01 1.51h.63c2.08-.02 3.74-1.72 3.72-3.8 0-.77-.25-1.51-.69-2.14z"/><path d="m488.05 450.33-13.04-17.51c-.71-.96-1.84-1.52-3.03-1.51h-.73c-2.08-.01-3.77 1.66-3.78 3.74 0 .83.27 1.64.77 2.3l13.13 17.49c.71.95 1.84 1.52 3.03 1.51h.63c2.09 0 3.77-1.7 3.77-3.79 0-.81-.26-1.59-.74-2.24z"/><path d="m684.84 149.51-13.04-17.51c-.7-.96-1.82-1.52-3.01-1.51h-.75c-2.09 0-3.77 1.7-3.76 3.79 0 .81.27 1.6.75 2.25l13.14 17.49c.71.95 1.82 1.51 3.01 1.51h.63c2.09 0 3.77-1.7 3.77-3.79 0-.81-.26-1.59-.74-2.24z"/><path d="m935.5 212.19-13.04-17.51c-.7-.96-1.82-1.52-3.01-1.51h-.75c-2.09 0-3.77 1.7-3.76 3.79 0 .81.27 1.6.75 2.25l13.14 17.41c.71.95 1.82 1.51 3.01 1.51h.63c2.09-.04 3.75-1.76 3.71-3.85-.01-.75-.25-1.47-.68-2.09z"/><path d="m1202.27 579.68.89-6.16c.17-1.18-.22-2.37-1.06-3.22-1.48-1.47-3.87-1.47-5.34.01-.58.58-.95 1.33-1.06 2.15l-.85 6.21c-.16 1.17.24 2.34 1.08 3.17 1.5 1.45 3.89 1.4 5.34-.1.54-.56.9-1.28 1.01-2.05z"/><path d="m1027.72 638.08c0-10.38 8.42-18.8 18.8-18.8s18.8 8.42 18.8 18.8-8.42 18.8-18.8 18.8c-10.38 0-18.79-8.42-18.8-18.8zm28.39 0c0-5.3-4.29-9.59-9.59-9.59s-9.59 4.29-9.59 9.59 4.29 9.59 9.59 9.59 9.59-4.29 9.59-9.59z"/><path d="m388.53 425.02c0-10.38 8.42-18.8 18.8-18.8s18.8 8.42 18.8 18.8-8.42 18.8-18.8 18.8-18.79-8.42-18.8-18.8zm28.39 0c0-5.3-4.29-9.59-9.59-9.59s-9.59 4.29-9.59 9.59 4.29 9.59 9.59 9.59 9.59-4.29 9.59-9.59z"/><path d="m363.46 688.21c0-10.38 8.42-18.8 18.8-18.8s18.8 8.42 18.8 18.8-8.42 18.8-18.8 18.8c-10.38 0-18.79-8.42-18.8-18.8zm28.39 0c0-5.3-4.29-9.59-9.59-9.59s-9.59 4.29-9.59 9.59 4.29 9.59 9.59 9.59 9.59-4.29 9.59-9.59z"/><path d="m137.87 500.22c0-10.38 8.42-18.8 18.8-18.8s18.8 8.42 18.8 18.8-8.42 18.8-18.8 18.8c-10.38 0-18.79-8.42-18.8-18.8zm28.39 0c0-5.3-4.29-9.59-9.59-9.59s-9.59 4.29-9.59 9.59 4.29 9.59 9.59 9.59 9.59-4.29 9.59-9.59z"/><path d="m194.27 274.62c0-10.38 8.42-18.8 18.8-18.8s18.8 8.42 18.8 18.8-8.42 18.8-18.8 18.8c-10.37-.02-18.78-8.42-18.8-18.8zm28.39 0c0-5.3-4.29-9.59-9.59-9.59s-9.59 4.29-9.59 9.59 4.29 9.59 9.59 9.59 9.59-4.29 9.59-9.59z"/><path d="m68.93 45.69c0-10.38 8.42-18.8 18.8-18.8s18.8 8.42 18.8 18.8-8.42 18.8-18.8 18.8c-10.37-.02-18.78-8.42-18.8-18.8zm28.39 0c0-5.3-4.29-9.59-9.59-9.59s-9.59 4.29-9.59 9.59 4.29 9.59 9.59 9.59c5.3 0 9.59-4.29 9.59-9.59z"/><path d="m653.78 369.07c0-10.38 8.42-18.8 18.8-18.8s18.8 8.42 18.8 18.8-8.42 18.8-18.8 18.8c-10.38 0-18.79-8.42-18.8-18.8zm28.39 0c0-5.3-4.28-9.6-9.57-9.61-5.3 0-9.6 4.28-9.61 9.57 0 5.3 4.28 9.6 9.57 9.61h.02c5.29 0 9.58-4.28 9.59-9.57z"/><path d="m739.46 562.88c0-10.38 8.42-18.8 18.8-18.8s18.8 8.42 18.8 18.8-8.42 18.8-18.8 18.8c-10.38 0-18.79-8.42-18.8-18.8zm28.39 0c0-5.3-4.29-9.59-9.59-9.59s-9.59 4.29-9.59 9.59 4.29 9.59 9.59 9.59 9.59-4.29 9.59-9.59z"/><path d="m839.73 425.02c0-10.38 8.42-18.8 18.8-18.8s18.8 8.42 18.8 18.8-8.42 18.8-18.8 18.8c-10.38 0-18.79-8.42-18.8-18.8zm28.39 0c0-5.3-4.29-9.59-9.59-9.59s-9.59 4.29-9.59 9.59 4.29 9.59 9.59 9.59 9.59-4.29 9.59-9.59z"/><path d="m1061.32 120.02c0-10.38 8.42-18.8 18.8-18.8s18.8 8.42 18.8 18.8-8.42 18.8-18.8 18.8c-10.38 0-18.79-8.42-18.8-18.8zm28.37 0c0-5.3-4.29-9.59-9.59-9.59s-9.59 4.29-9.59 9.59 4.29 9.59 9.59 9.59h.02c5.29 0 9.57-4.3 9.57-9.59z"/><path d="m388.53 74.09c0-10.38 8.42-18.8 18.8-18.8s18.8 8.42 18.8 18.8-8.42 18.8-18.8 18.8-18.79-8.42-18.8-18.8zm28.39 0c0-5.3-4.29-9.59-9.59-9.59s-9.59 4.29-9.59 9.59 4.29 9.59 9.59 9.59c5.3 0 9.59-4.29 9.59-9.59z"/><path d="m996.39 334.34c0-10.38 8.42-18.8 18.8-18.8s18.8 8.42 18.8 18.8-8.42 18.8-18.8 18.8c-10.38 0-18.79-8.42-18.8-18.8zm28.39 0c0-5.3-4.28-9.6-9.57-9.61s-9.6 4.28-9.61 9.57c0 5.3 4.28 9.6 9.57 9.61h.02c5.29 0 9.58-4.28 9.59-9.57z"/><path d="m839.73 237.02c0-10.38 8.42-18.8 18.8-18.8s18.8 8.42 18.8 18.8-8.42 18.8-18.8 18.8c-10.38 0-18.79-8.42-18.8-18.8zm28.39 0c0-5.3-4.29-9.59-9.59-9.59s-9.59 4.29-9.59 9.59 4.29 9.59 9.59 9.59 9.59-4.29 9.59-9.59z"/><path d="m1190.66 525.28c0-10.38 8.42-18.8 18.8-18.8s18.8 8.42 18.8 18.8-8.42 18.8-18.8 18.8c-10.38 0-18.79-8.42-18.8-18.8zm28.39 0c0-5.3-4.29-9.59-9.59-9.59s-9.59 4.29-9.59 9.59 4.29 9.59 9.59 9.59 9.59-4.29 9.59-9.59z"/><path d="m1253.32 750.88c0-10.38 8.42-18.8 18.8-18.8s18.8 8.42 18.8 18.8-8.42 18.8-18.8 18.8c-10.38 0-18.79-8.42-18.8-18.8zm28.39 0c0-5.3-4.29-9.59-9.59-9.59s-9.59 4.29-9.59 9.59 4.29 9.59 9.59 9.59 9.59-4.29 9.59-9.59z"/><path d="m538.93 99.15c0-10.38 8.42-18.8 18.8-18.8s18.8 8.42 18.8 18.8-8.42 18.8-18.8 18.8c-10.38 0-18.79-8.42-18.8-18.8zm28.39 0c0-5.3-4.29-9.59-9.59-9.59s-9.59 4.29-9.59 9.59 4.29 9.59 9.59 9.59 9.59-4.29 9.59-9.59z"/><path d="m739.46 86.62c0-10.38 8.42-18.8 18.8-18.8s18.8 8.42 18.8 18.8-8.42 18.8-18.8 18.8c-10.38 0-18.79-8.42-18.8-18.8zm28.39 0c0-5.3-4.29-9.59-9.59-9.59s-9.59 4.29-9.59 9.59 4.29 9.59 9.59 9.59 9.59-4.29 9.59-9.59z"/><path d="m1278.39 74.09c0-10.38 8.42-18.8 18.8-18.8s18.8 8.42 18.8 18.8-8.42 18.8-18.8 18.8c-10.38 0-18.79-8.42-18.8-18.8zm28.39 0c0-5.3-4.29-9.59-9.59-9.59s-9.59 4.29-9.59 9.59 4.29 9.59 9.59 9.59 9.59-4.29 9.59-9.59z"/><path d="m1226.03 351.03c0-10.38 8.42-18.8 18.8-18.8s18.8 8.42 18.8 18.8-8.42 18.8-18.8 18.8c-10.38 0-18.79-8.42-18.8-18.8zm28.39 0c0-5.3-4.28-9.6-9.57-9.61s-9.6 4.28-9.61 9.57c0 5.3 4.28 9.6 9.57 9.61h.02c5.29 0 9.58-4.28 9.59-9.57z"/><path d="m608.85 517.12c-.01-1.83-1.08-3.48-2.73-4.25-17.36-7.89-25.04-28.37-17.15-45.73 5.54-12.18 17.61-20.07 30.99-20.24h.87c19.07.2 34.37 15.83 34.17 34.9-.14 13.41-8.03 25.52-20.24 31.07-1.66.77-2.72 2.42-2.73 4.25 0 1.9 1.15 3.6 2.91 4.32.55.23 1.14.35 1.74.35s1.19-.13 1.74-.37l.28-.12c22.03-10.09 31.7-36.13 21.61-58.15-7.15-15.6-22.74-25.6-39.9-25.6-24.23-.01-43.88 19.62-43.89 43.84 0 17.16 9.99 32.76 25.6 39.9l.28.12c.55.24 1.14.36 1.74.37.6 0 1.19-.12 1.74-.35 1.79-.69 2.98-2.4 2.99-4.32z"/><path d="m1048.42 733.07c1.83-.01 3.48-1.08 4.25-2.73 7.89-17.36 28.37-25.04 45.73-17.15 12.18 5.54 20.07 17.61 20.24 30.99v.87c-.2 19.07-15.83 34.37-34.9 34.17-13.41-.14-25.52-8.03-31.07-20.24-.77-1.66-2.42-2.72-4.25-2.73-1.9 0-3.6 1.15-4.32 2.91-.23.55-.35 1.14-.35 1.74s.13 1.19.37 1.74c0 0 0 .17.12.28 10.09 22.03 36.13 31.7 58.15 21.61 15.6-7.15 25.6-22.74 25.6-39.9.01-24.23-19.62-43.88-43.84-43.89-17.16 0-32.76 9.99-39.9 25.6 0 .1 0 .19-.12.28-.24.55-.36 1.14-.37 1.74 0 .6.12 1.19.35 1.74.69 1.79 2.4 2.98 4.32 2.99z"/><path d="m973.22 169.08c1.83-.01 3.48-1.08 4.25-2.73 7.89-17.36 28.37-25.04 45.73-17.15 12.21 5.55 20.1 17.66 20.24 31.07v.87c-.25 19.07-15.91 34.33-34.99 34.08-13.38-.18-25.45-8.06-30.99-20.24-.77-1.66-2.42-2.72-4.25-2.73-1.9 0-3.6 1.15-4.32 2.91-.23.55-.35 1.14-.35 1.74s.13 1.19.37 1.74c0 .09 0 .17.12.28 10.09 22.03 36.13 31.7 58.15 21.61 15.6-7.15 25.6-22.74 25.59-39.9.01-24.23-19.62-43.88-43.84-43.89-17.16 0-32.76 9.99-39.9 25.6 0 .1-.09.19-.12.28-.24.55-.36 1.14-.37 1.74 0 .6.12 1.19.35 1.74.69 1.79 2.4 2.98 4.32 2.99z"/><path d="m556.2 227.34c-1.83.01-3.48 1.08-4.25 2.73-7.89 17.36-28.37 25.04-45.73 17.15-12.18-5.54-20.07-17.61-20.24-30.99v-.87c.2-19.07 15.83-34.37 34.9-34.17 13.41.14 25.52 8.03 31.07 20.24.43.93 1.15 1.69 2.05 2.18.67.36 1.43.55 2.19.54 1.9 0 3.6-1.15 4.32-2.91.47-1.14.47-2.43 0-3.57-.03-.09-.07-.18-.12-.26-10.09-22.03-36.13-31.7-58.15-21.61-15.6 7.15-25.6 22.73-25.6 39.89-.01 24.23 19.62 43.88 43.84 43.89 17.16 0 32.76-9.99 39.9-25.6.04-.03.08-.07.12-.1.24-.55.36-1.14.37-1.74 0-.6-.12-1.19-.35-1.74-.67-1.82-2.39-3.04-4.33-3.06z"/><path d="m494.07 752.78c.01 1.83 1.08 3.48 2.73 4.25 17.36 7.89 25.04 28.37 17.15 45.73-5.54 12.18-17.61 20.07-30.99 20.24h-.78c-19.07-.25-34.33-15.91-34.08-34.99.18-13.38 8.06-25.45 20.24-30.99 1.66-.77 2.72-2.42 2.73-4.25 0-1.9-1.15-3.6-2.91-4.32-.55-.23-1.14-.35-1.74-.35s-1.19.13-1.74.37l-.28.12c-22.03 10.09-31.7 36.13-21.61 58.15 7.12 15.55 22.63 25.54 39.73 25.6 24.23.01 43.88-19.62 43.89-43.84 0-17.16-9.99-32.76-25.6-39.9l-.28-.12c-.55-.24-1.14-.36-1.74-.37-.6 0-1.19.12-1.74.35-1.79.69-2.98 2.4-2.99 4.32z"/><path d="m289.05 11.56c0 1.82 1.05 3.48 2.72 4.23 17.36 7.89 25.04 28.37 17.15 45.73-5.55 12.21-17.66 20.1-31.07 20.24h-.85c-19.07-.25-34.33-15.91-34.08-34.99.18-13.38 8.06-25.45 20.24-30.99 2.34-1.09 3.36-3.88 2.26-6.22-.49-1.06-1.36-1.89-2.44-2.34-.56-.22-1.14-.34-1.74-.35-.6.01-1.19.14-1.74.37l-.26.12c-22.04 10.05-31.77 36.07-21.72 58.11 7.14 15.66 22.78 25.7 40 25.67 24.23 0 43.87-19.63 43.87-43.86 0-17.16-10-32.74-25.6-39.89l-.26-.12c-.55-.23-1.14-.35-1.74-.37-.6.01-1.19.13-1.74.35-1.78.7-2.96 2.39-2.99 4.3z"/><path d="m1027.74 556.01v-7.4c0-2.5 2.03-4.53 4.53-4.53 2.5 0 4.53 2.02 4.54 4.53v7.5c-.1 5.15 3.7 9.54 8.81 10.18 5.35.5 10.09-3.43 10.59-8.78.03-.3.04-.6.04-.9v-8.01c0-2.5 2.04-4.53 4.54-4.53 2.5 0 4.52 2.03 4.53 4.53v8.01c-.01 10.39-8.45 18.81-18.84 18.79-.57 0-1.13-.03-1.7-.08-9.81-1.08-17.19-9.45-17.04-19.32z"/><path d="m676.81 631.2v-7.4c0-2.5 2.03-4.53 4.53-4.53 2.49.02 4.5 2.04 4.51 4.53v7.5c-.1 5.15 3.7 9.54 8.81 10.18 5.35.5 10.09-3.43 10.59-8.78.03-.3.04-.6.04-.9v-8.01c0-2.5 2.04-4.53 4.54-4.53 2.5 0 4.52 2.03 4.53 4.53v8.01c-.01 10.39-8.45 18.81-18.84 18.79-.57 0-1.13-.03-1.7-.08-9.8-1.1-17.16-9.46-17.01-19.32z"/><path d="m100.28 368.01v-7.4c0-2.5 2.03-4.53 4.53-4.53 2.5 0 4.53 2.02 4.54 4.53v7.5c-.14 5.17 3.67 9.61 8.81 10.25 5.35.51 10.1-3.41 10.61-8.76.03-.33.05-.66.04-.98v-8.01c0-2.5 2.04-4.53 4.54-4.53 2.5 0 4.52 2.03 4.53 4.53v8.01c-.01 10.39-8.45 18.81-18.84 18.79-.57 0-1.13-.03-1.7-.08-9.82-1.08-17.21-9.45-17.06-19.32z"/><path d="m627.9 191.69h-7.4c-2.5 0-4.52-2.03-4.53-4.53 0-2.5 2.02-4.53 4.53-4.54h7.5c5.15.1 9.54-3.7 10.18-8.81.5-5.35-3.43-10.09-8.78-10.59-.3-.03-.6-.04-.9-.04h-8.01c-2.5 0-4.53-2.04-4.53-4.54 0-2.5 2.03-4.53 4.53-4.53h8.01c10.39.01 18.81 8.45 18.8 18.84 0 .59-.03 1.17-.08 1.76-1.11 9.79-9.47 17.14-19.32 16.99z"/><path d="m1215.72 274.01v-7.38c0-2.5 2.02-4.53 4.53-4.54 2.51 0 4.54 2.03 4.54 4.54v7.5c-.1 5.15 3.7 9.54 8.81 10.18 5.35.5 10.09-3.43 10.59-8.78.03-.3.04-.61.04-.91v-7.99c0-2.51 2.03-4.54 4.54-4.54 2.5 0 4.53 2.03 4.53 4.53v8.01c0 10.38-8.42 18.8-18.81 18.79-.58 0-1.16-.03-1.73-.08-9.81-1.08-17.19-9.45-17.04-19.32z"/><path d="m321.69 223.68v-7.21c0-2.5 2.04-4.53 4.54-4.53 2.49 0 4.51 2.03 4.51 4.53v7.38c-.12 8.6 6.41 15.83 14.97 16.59 8.83.56 16.43-6.15 16.99-14.97.02-.33.03-.66.03-.99v-8.01c0-2.5 2.03-4.53 4.53-4.53 2.5 0 4.53 2.02 4.54 4.53v8.01c0 13.85-11.22 25.09-25.07 25.09-.39 0-.78 0-1.18-.03-13.49-.66-23.87-12.34-23.87-25.87z"/><path d="m1228.27 631.01v-7.21c0-2.5 2.03-4.53 4.53-4.53 2.5 0 4.53 2.02 4.54 4.53v7.38c-.13 8.59 6.4 15.82 14.95 16.59 8.83.56 16.43-6.15 16.99-14.97.02-.33.03-.66.03-.99v-8.01c0-2.5 2.04-4.53 4.54-4.53 2.5 0 4.52 2.03 4.53 4.53v8.01c.02 13.84-11.19 25.08-25.04 25.09-.4 0-.81 0-1.21-.03-13.51-.66-23.87-12.34-23.87-25.87z"/><path d="m1007.1 769.68c2.45 0 4.44 1.99 4.44 4.44v36.17c0 2.45-1.99 4.44-4.44 4.44-2.45 0-4.44-1.99-4.44-4.44v-36.17c0-2.45 1.99-4.44 4.44-4.44z"/><path d="m1259.31 392.32c2.45 0 4.44 1.99 4.44 4.44v36.17c0 2.45-1.99 4.44-4.44 4.44-2.45 0-4.44-1.99-4.44-4.44v-36.17c0-2.45 1.99-4.44 4.44-4.44z"/><rect height="45.05" rx="4.44" width="8.88" x="33.94" y="333.11"/><path d="m443.1 650.34c2.45 0 4.44 1.99 4.44 4.44v36.17c0 2.45-1.99 4.44-4.44 4.44-2.45 0-4.44-1.99-4.44-4.44v-36.17c0-2.45 1.99-4.44 4.44-4.44z"/><path d="m104.7 549.16c2.45 0 4.44 1.99 4.44 4.44v36.17c0 2.45-1.99 4.44-4.44 4.44-2.45 0-4.44-1.99-4.44-4.44v-36.17c0-2.45 1.99-4.44 4.44-4.44z"/><rect height="45.05" rx="4.44" width="8.88" x="614.13" y="72.9"/><path d="m1170.03 226.31c2.45 0 4.44 1.99 4.44 4.44v36.17c0 2.45-1.99 4.44-4.44 4.44-2.45 0-4.44-1.99-4.44-4.44v-36.17c0-2.45 1.99-4.44 4.44-4.44z"/><rect height="45.05" rx="4.44" width="8.88" x="830.85" y="285.97"/><rect height="45.05" rx="4.44" width="8.88" x="814.66" y="499.03"/><path d="m715.16 136.98 3.73-4.98c.71-.95 1.82-1.51 3.01-1.51 2.09 0 3.78 1.69 3.78 3.78 0 .82-.27 1.62-.77 2.28l-3.73 5.08c-.72.93-1.83 1.48-3.01 1.48-2.09.03-3.8-1.64-3.83-3.72-.01-.87.28-1.72.82-2.4z"/><path d="m176.47 150.66 3.73-4.98c.71-.95 1.82-1.51 3.01-1.51 2.09 0 3.78 1.69 3.78 3.78 0 .82-.27 1.62-.77 2.28l-3.79 5c-.72.93-1.83 1.48-3.01 1.48-2.09-.05-3.74-1.77-3.69-3.86.02-.79.28-1.55.75-2.18z"/><path d="m717.18 394.12 3.73-4.98c.71-.96 1.84-1.52 3.03-1.51 2.09 0 3.77 1.71 3.76 3.79 0 .82-.27 1.61-.77 2.26l-3.79 4.98c-.71.94-1.83 1.5-3.01 1.5-2.09-.05-3.74-1.77-3.69-3.86.02-.79.28-1.55.75-2.18z"/><path d="m529.18 456.78 3.73-4.98c.71-.96 1.84-1.52 3.03-1.51 2.09 0 3.77 1.71 3.76 3.79 0 .82-.27 1.61-.77 2.26l-3.79 4.98c-.71.94-1.83 1.5-3.01 1.5-2.09-.05-3.74-1.77-3.69-3.86.02-.79.28-1.55.75-2.18z"/><path d="m620.12 230.05 3.73-5c.72-.95 1.84-1.51 3.03-1.51 2.09 0 3.78 1.7 3.77 3.78 0 .83-.27 1.64-.78 2.29l-3.79 4.98c-.72.94-1.83 1.49-3.01 1.48-2.08-.03-3.73-1.74-3.7-3.82.01-.8.28-1.57.76-2.2z"/><rect height="31.21" rx="4.44" width="9.07" x="1269.32" y="193.15"/><path d="m1224.53 224.9 3.73-4.94c.71-.96 1.84-1.52 3.03-1.51 2.09 0 3.78 1.69 3.78 3.78 0 .82-.27 1.62-.77 2.28l-3.79 4.98c-.71.94-1.83 1.5-3.01 1.5-2.09-.02-3.76-1.73-3.74-3.82 0-.82.28-1.61.78-2.26z"/><path d="m767.24 795.18 3.73-4.98c.71-.96 1.84-1.52 3.03-1.51 2.09 0 3.77 1.71 3.76 3.79 0 .82-.27 1.61-.77 2.26l-3.79 4.98c-.71.94-1.83 1.5-3.01 1.5-2.09-.05-3.74-1.77-3.69-3.86.02-.79.28-1.55.75-2.18z"/><path d="m202.46 400.18 3.73-4.98c.71-.95 1.84-1.52 3.03-1.51 2.09 0 3.77 1.71 3.76 3.79 0 .82-.27 1.61-.77 2.26l-3.79 5c-.72.93-1.82 1.47-2.99 1.48-2.09-.04-3.75-1.76-3.71-3.84.01-.79.28-1.56.75-2.2z"/><path d="m327.8 287.38 3.73-4.98c.71-.95 1.84-1.52 3.03-1.51 2.09 0 3.77 1.71 3.76 3.79 0 .82-.27 1.61-.77 2.26l-3.79 5c-.72.93-1.82 1.47-2.99 1.48-2.09-.04-3.75-1.76-3.71-3.84.01-.79.28-1.56.75-2.2z"/><path d="m50.9 751.11 3.73-4.98c.71-.95 1.82-1.51 3.01-1.51 2.09 0 3.78 1.69 3.78 3.78 0 .82-.27 1.62-.77 2.28l-3.79 5c-.72.93-1.83 1.48-3.01 1.48-2.09-.05-3.74-1.77-3.69-3.86.02-.79.28-1.55.75-2.18z"/><path d="m340.02 606.9v-7.21c0-2.51 2.03-4.54 4.54-4.54 2.5 0 4.53 2.04 4.53 4.54v7.36c-.12 8.6 6.41 15.83 14.97 16.59 8.82.57 16.42-6.12 16.99-14.94.02-.34.03-.68.03-1.03v-7.99c0-2.5 2.01-4.53 4.51-4.54h.02c2.5 0 4.53 2.03 4.53 4.53v8.01c0 13.84-11.23 25.06-25.07 25.06-.42 0-.83-.01-1.25-.03-13.42-.63-23.8-12.31-23.8-25.81z"/><path d="m764.54 392.88v-7.21c0-2.5 2.03-4.53 4.53-4.53 2.5 0 4.53 2.02 4.54 4.53v7.38c-.15 8.6 6.36 15.87 14.94 16.64 8.83.56 16.43-6.15 16.99-14.97.02-.33.03-.66.03-.99v-8.01c0-2.5 2.04-4.53 4.54-4.53 2.5 0 4.52 2.03 4.53 4.53v8.01c0 13.84-11.23 25.06-25.07 25.06-.39 0-.78 0-1.18-.03-13.49-.68-23.85-12.36-23.85-25.88z"/><path d="m839.74 154.77v-7.21c0-2.5 2.01-4.53 4.51-4.54h.02c2.51 0 4.54 2.03 4.54 4.54v7.36c-.13 8.59 6.4 15.82 14.95 16.59 8.82.58 16.43-6.1 17.01-14.92.02-.35.03-.7.03-1.04v-7.99c0-2.51 2.03-4.54 4.54-4.54 2.5 0 4.53 2.04 4.53 4.54v7.99c0 13.84-11.23 25.06-25.07 25.06-.39 0-.78 0-1.18-.03-13.53-.66-23.88-12.31-23.88-25.81z"/><path d="m299.4 133.24h7.38c2.49 0 4.52 2 4.53 4.49v.03c0 2.5-2.01 4.53-4.51 4.54h-7.52c-5.15-.1-9.54 3.7-10.18 8.81-.5 5.35 3.43 10.09 8.78 10.59.3.03.6.04.9.04h8.01c2.5 0 4.53 2.03 4.53 4.53v.02c0 2.5-2.03 4.53-4.53 4.53h-8.01c-10.39.02-18.83-8.39-18.86-18.78 0-.57.02-1.14.07-1.71 1.06-9.87 9.49-17.29 19.41-17.09z"/><path d="m1130.34 606.75h7.38c2.5 0 4.53 2.03 4.53 4.53 0 2.5-2.01 4.53-4.51 4.54h-7.52c-5.15-.1-9.54 3.7-10.18 8.81-.5 5.35 3.43 10.09 8.78 10.59.3.03.6.04.9.04h8.01c2.5 0 4.53 2.03 4.53 4.53v.02c0 2.49-2 4.52-4.49 4.53-.01 0-.02 0-.03 0h-7.99c-10.39 0-18.81-8.43-18.81-18.83 0-.57.03-1.13.08-1.7 1.08-9.83 9.46-17.22 19.34-17.06z"/><path d="m157.27 619.28h7.38c2.5 0 4.53 2.02 4.54 4.53 0 2.51-2.03 4.54-4.54 4.54h-7.5c-5.15-.1-9.54 3.7-10.18 8.81-.5 5.35 3.43 10.09 8.78 10.59.3.03.61.04.91.04h7.99c2.51 0 4.54 2.03 4.54 4.54 0 2.5-2.03 4.53-4.53 4.53h-8.01c-10.38 0-18.8-8.42-18.79-18.81 0-.58.03-1.16.08-1.73 1.08-9.81 9.45-17.19 19.32-17.04z"/><path d="m933.12 506.46h-7.38c-2.5 0-4.53-2.01-4.54-4.51v-.02c0-2.51 2.03-4.54 4.54-4.54h7.5c5.15.1 9.54-3.7 10.18-8.81.5-5.35-3.43-10.09-8.78-10.59-.3-.03-.61-.04-.91-.04h-7.99c-2.51 0-4.54-2.03-4.54-4.54 0-2.5 2.04-4.53 4.54-4.53h7.99c10.38 0 18.8 8.42 18.79 18.81 0 .58-.03 1.16-.08 1.73-1.08 9.81-9.45 17.19-19.32 17.04z"/><path d="m558.95 640.9h7.4c2.5 0 4.53 2.03 4.53 4.53 0 2.5-2.03 4.53-4.53 4.53h-7.57c-5.15-.1-9.55 3.71-10.18 8.83-.5 5.35 3.43 10.09 8.78 10.59.3.03.6.04.9.04h8.01c2.5 0 4.52 2.03 4.53 4.53 0 2.5-2.02 4.53-4.53 4.54h-8.01c-10.39-.05-18.77-8.52-18.72-18.91 0-.54.03-1.09.08-1.63 1.08-9.81 9.45-17.19 19.32-17.04z"/><path d="m605.2 289.26v-7.38c0-2.51 2.03-4.54 4.54-4.54 2.5 0 4.53 2.04 4.53 4.54v7.5c-.1 5.14 3.7 9.53 8.81 10.17 5.35.5 10.09-3.43 10.59-8.78.03-.3.04-.6.04-.9v-7.99c0-2.51 2.03-4.54 4.54-4.54 2.5 0 4.53 2.03 4.53 4.53v8.01c0 10.38-8.42 18.8-18.81 18.79-.58 0-1.16-.03-1.73-.08-9.81-1.08-17.19-9.45-17.04-19.32z"/><path d="m1103.71 218.22h7.21c2.5 0 4.53 2.01 4.54 4.51v.02c0 2.51-2.03 4.54-4.54 4.54h-7.29c-8.59-.13-15.82 6.4-16.59 14.95-.57 8.82 6.12 16.42 14.94 16.99.34.02.68.03 1.03.03h7.99c2.51 0 4.54 2.03 4.54 4.54 0 2.5-2.04 4.53-4.54 4.53h-8.06c-13.84 0-25.06-11.23-25.06-25.07 0-.39 0-.78.03-1.18.63-13.42 12.31-23.87 25.82-23.87z"/><path d="m903.18 331.03h7.22c2.5 0 4.53 2.01 4.54 4.51v.02c-.02 2.5-2.05 4.51-4.54 4.51h-7.36c-8.59-.13-15.82 6.4-16.59 14.95-.57 8.82 6.12 16.42 14.94 16.99.34.02.68.03 1.03.03h7.99c2.51 0 4.54 2.05 4.53 4.56v.02c0 2.5-2.04 4.53-4.54 4.53h-7.99c-13.84.02-25.08-11.19-25.09-25.04 0-.4 0-.81.03-1.21.66-13.51 12.34-23.87 25.85-23.87z"/><path d="m237.19 572.51h-7.42c-2.49 0-4.52-2-4.53-4.49 0-.01 0-.02 0-.03 0-2.5 2.01-4.53 4.51-4.54h7.52c5.15.1 9.54-3.7 10.18-8.81.5-5.35-3.43-10.09-8.78-10.59-.3-.03-.6-.04-.9-.04h-8.01c-2.5 0-4.53-2.03-4.53-4.53v-.02c0-2.5 2.03-4.53 4.53-4.53h8.01c10.39.01 18.81 8.45 18.79 18.84 0 .57-.03 1.13-.08 1.7-1.08 9.81-9.44 17.18-19.3 17.04z"/><path d="m249.86 732.08h-7.21c-2.5 0-4.52-2.03-4.53-4.53 0-2.5 2.02-4.53 4.53-4.54h7.38c8.59.13 15.82-6.4 16.59-14.95.57-8.82-6.12-16.42-14.94-16.99-.34-.02-.68-.03-1.03-.03h-8.01c-2.5 0-4.53-2.04-4.53-4.54 0-2.5 2.03-4.53 4.53-4.53h8.01c13.84 0 25.06 11.23 25.06 25.07 0 .39 0 .78-.03 1.18-.66 13.51-12.31 23.87-25.83 23.87z"/><path d="m157.94 54.27h-7.21c-2.49 0-4.52-2-4.53-4.49 0-.01 0-.02 0-.03 0-2.49 2-4.52 4.49-4.53h.03 7.36c8.6.13 15.84-6.4 16.61-14.97.55-8.84-6.17-16.45-15.01-16.99-.32-.02-.64-.03-.95-.03h-8.01c-2.5 0-4.52-2.04-4.51-4.54v-.05c0-2.5 2.01-4.53 4.51-4.54h8.02c13.86.02 25.08 11.28 25.06 25.14 0 .37 0 .74-.03 1.11-.64 13.58-12.32 23.93-25.85 23.93z"/><path d="m852.26 746.82v7.4c0 2.5-2.04 4.53-4.54 4.53-2.5 0-4.53-2.03-4.53-4.53v-7.5c.1-5.15-3.71-9.55-8.83-10.18-5.35-.5-10.09 3.43-10.59 8.78-.03.3-.04.6-.04.9v8.01c0 2.5-2.03 4.53-4.53 4.53-2.5 0-4.53-2.02-4.54-4.53v-8.01c.01-10.39 8.45-18.81 18.84-18.79.57 0 1.13.03 1.7.08 9.82 1.08 17.21 9.45 17.06 19.32z"/><path d="m105.61 190.92v7.38c0 2.49-2 4.52-4.49 4.53-.01 0-.02 0-.03 0-2.49 0-4.52-2-4.53-4.49 0-.01 0-.02 0-.03v-7.5c.1-5.15-3.71-9.55-8.83-10.18-5.36-.49-10.11 3.46-10.6 8.82-.03.31-.04.62-.04.93v8.01c0 2.5-2.03 4.53-4.53 4.53-2.5 0-4.53-2.01-4.54-4.51v-8.02c.01-10.39 8.45-18.81 18.84-18.79.57 0 1.13.03 1.7.08 9.79 1.08 17.16 9.42 17.04 19.27z"/><path d="m1378.66 385.92v7.4c0 2.5-2.03 4.53-4.53 4.53-2.5 0-4.53-2.01-4.54-4.51v-7.52c.1-5.15-3.7-9.54-8.81-10.18-5.35-.5-10.09 3.43-10.59 8.78-.03.3-.04.6-.04.9v8.01c0 2.5-2.03 4.53-4.53 4.53h-.02c-2.49 0-4.52-2-4.53-4.49v-8.02c.01-10.39 8.45-18.81 18.84-18.79.57 0 1.13.03 1.7.08 9.81 1.08 17.18 9.44 17.04 19.3z"/><path d="m952.53 287.85v7.38c0 2.5-2.02 4.53-4.53 4.54-2.51 0-4.54-2.03-4.54-4.54v-7.5c.1-5.15-3.7-9.54-8.81-10.18-5.35-.5-10.09 3.43-10.59 8.78-.03.3-.04.61-.04.91v7.99c0 2.51-2.03 4.54-4.54 4.54-2.5 0-4.53-2.03-4.53-4.53v-8.09c0-10.38 8.42-18.8 18.81-18.79.58 0 1.16.03 1.73.08 9.85 1.09 17.24 9.51 17.04 19.41z"/><path d="m390.91 509.53v7.38c0 2.49-2 4.52-4.49 4.53-.01 0-.02 0-.03 0-2.49 0-4.52-2-4.53-4.49 0-.01 0-.02 0-.03v-7.5c.1-5.15-3.71-9.55-8.83-10.18-5.35-.5-10.09 3.43-10.59 8.78-.03.3-.04.6-.04.9v8.01c0 2.5-2.03 4.53-4.53 4.53-2.5 0-4.53-2.01-4.54-4.51v-8.01c.01-10.39 8.45-18.81 18.84-18.79.57 0 1.13.03 1.7.08 9.81 1.08 17.19 9.45 17.04 19.32z"/><path d="m515.73 324v7.36c0 2.51-2.03 4.54-4.54 4.54-2.5 0-4.53-2.03-4.53-4.53v-7.5c.1-5.15-3.71-9.55-8.83-10.18-5.36-.49-10.11 3.46-10.6 8.82-.03.29-.04.58-.04.88v7.97c0 2.5-2.01 4.53-4.51 4.54h-.02c-2.51 0-4.54-2.03-4.54-4.54v-7.99c0-10.39 8.43-18.81 18.83-18.81.57 0 1.15.03 1.72.08 9.83 1.08 17.23 9.47 17.06 19.36z"/><path d="m1190.66 407v7.21c0 2.5-2.01 4.53-4.51 4.54h-.02c-2.51 0-4.54-2.03-4.54-4.54v-7.36c.13-8.59-6.4-15.82-14.95-16.59-8.82-.57-16.42 6.12-16.99 14.94-.02.34-.03.68-.03 1.03v7.99c0 2.51-2.03 4.54-4.54 4.54-2.5 0-4.53-2.04-4.53-4.54v-7.99c0-13.84 11.23-25.06 25.07-25.06.39 0 .78 0 1.18.03 13.42.66 23.87 12.31 23.87 25.82z"/><path d="m902.38 620.06v7.22c0 2.5-2.01 4.53-4.51 4.54h-.02c-2.51 0-4.54-2.03-4.54-4.54v-7.36c.13-8.59-6.4-15.82-14.95-16.59-8.82-.57-16.42 6.12-16.99 14.94-.02.34-.03.68-.03 1.03v7.99c0 2.51-2.03 4.54-4.54 4.54-2.5 0-4.53-2.04-4.53-4.54v-8.01c-.02-13.84 11.19-25.08 25.04-25.09.4 0 .81 0 1.21.03 13.51.66 23.87 12.34 23.87 25.85z"/><path d="m87.73 444.62v7.21c0 2.5-2.03 4.52-4.53 4.53-2.5 0-4.53-2.02-4.54-4.53v-7.31c.13-8.59-6.4-15.82-14.95-16.59-8.82-.57-16.42 6.12-16.99 14.94-.02.34-.03.68-.03 1.03v8.01c0 2.5-2.04 4.53-4.54 4.53-2.5 0-4.53-2.03-4.53-4.53v-8.01c0-13.84 11.23-25.06 25.07-25.06.39 0 .78 0 1.18.03 13.51.56 23.87 12.24 23.87 25.76z"/><path d="m535.4 538.37v7.21c0 2.5-2.03 4.53-4.53 4.53h-.02c-2.5 0-4.53-2.03-4.53-4.53v-7.38c.12-8.6-6.41-15.83-14.97-16.59-8.84-.55-16.45 6.17-16.99 15.01-.02.32-.03.64-.03.95v8.01c0 2.49-2 4.52-4.49 4.53-.01 0-.02 0-.03 0-2.49 0-4.52-2-4.53-4.49 0-.01 0-.02 0-.03v-8.01c.01-13.85 11.26-25.07 25.11-25.06.38 0 .76 0 1.14.03 13.49.63 23.87 12.31 23.87 25.83z"/><path d="m1315.99 157.14v7.21c0 2.5-2.03 4.52-4.53 4.53-2.5 0-4.53-2.02-4.54-4.53v-7.38c.13-8.59-6.4-15.82-14.95-16.59-8.83-.56-16.43 6.15-16.99 14.97-.02.33-.03.66-.03.99v8.01c0 2.5-2.04 4.53-4.54 4.53-2.5 0-4.53-2.03-4.53-4.53v-8.01c0-13.84 11.23-25.06 25.07-25.06.39 0 .78 0 1.18.03 13.51.63 23.87 12.31 23.87 25.83z"/><path d="m977.59 56.09v7.21c0 2.5-2.03 4.52-4.53 4.53-2.5 0-4.53-2.02-4.54-4.53v-7.38c.13-8.59-6.4-15.82-14.95-16.59-8.82-.59-16.44 6.08-17.02 14.9-.02.35-.04.71-.04 1.06v8.01c0 2.5-2.04 4.53-4.54 4.53-2.5 0-4.53-2.03-4.53-4.53v-8.01c-.02-13.84 11.19-25.08 25.04-25.1.42 0 .83 0 1.25.03 13.51.66 23.87 12.34 23.87 25.87z"/><circle cx="572.35" cy="280.88" r="6.27"/><circle cx="1330.25" cy="205.7" r="6.27"/><circle cx="1347.32" cy="57.04" r="6.27"/><circle cx="1168.78" cy="184.66" r="6.27"/><circle cx="1146.79" cy="312.22" r="6.27"/><circle cx="1021.46" cy="406.22" r="6.27"/><circle cx="495.06" cy="387.42" r="6.27"/><circle cx="1272.12" cy="575.41" r="6.27"/><circle cx="444.93" cy="512.75" r="6.27"/><circle cx="213.06" cy="481.42" r="6.27"/><circle cx="181.73" cy="337.28" r="6.27"/><circle cx="129.98" cy="93.46" r="6.27"/><circle cx="507.6" cy="74.09" r="6.27"/><circle cx="695.59" cy="99.15" r="6.27"/><circle cx="1134.26" cy="575.41" r="6.27"/><circle cx="1347.32" cy="750.88" r="6.27"/><circle cx="808.39" cy="587.95" r="6.27"/><circle cx="946.26" cy="713.28" r="6.27"/><circle cx="871.06" cy="813.55" r="6.27"/><circle cx="231.86" cy="625.55" r="6.27"/><circle cx="162.93" cy="757.15" r="6.27"/><circle cx="401.06" cy="744.61" r="6.27"/><circle cx="651.73" cy="769.68" r="6.27"/><circle cx="25.07" cy="493.95" r="6.27"/><circle cx="62.67" cy="255.82" r="6.27"/><circle cx="68.93" cy="813.55" r="6.27"/><circle cx="670.53" cy="562.88" r="6.27"/><circle cx="394.8" cy="174.35" r="6.27"/><circle cx="1307.11" cy="362.38" r="6.27"/><circle cx="708.13" cy="262.08" r="6.27"/><circle cx="927.46" cy="117.95" r="6.27"/><path d="m1323.39 702.38v.19c0 2.45 1.99 4.44 4.44 4.44h50.83v-9.07h-50.83c-2.45 0-4.44 1.99-4.44 4.44z"/><path d="m25.07 702.57v-.19c0-2.45-1.99-4.44-4.44-4.44h-20.63v9.07h20.63c2.45 0 4.44-1.99 4.44-4.44z"/><path d="m158.75 788.48c-24.23 0-43.87 19.64-43.87 43.87 0 4.24.62 8.47 1.83 12.53h9.9c-1.58-3.99-2.38-8.24-2.38-12.53 0-19.06 15.47-34.51 34.53-34.51 19.05 0 34.5 15.45 34.51 34.51 0 4.29-.81 8.54-2.38 12.53h9.9c6.92-23.22-6.29-47.65-29.5-54.57-4.07-1.21-8.29-1.83-12.53-1.83z"/><path d="m62.67 117.95c0-24.22-19.62-43.85-43.84-43.86-6.51 0-12.95 1.45-18.83 4.24v10.71c15.96-10.42 37.35-5.93 47.77 10.04 10.42 15.96 5.93 37.35-10.04 47.77-11.47 7.49-26.27 7.49-37.74 0v10.71c21.87 10.39 48.03 1.09 58.42-20.79 2.79-5.88 4.24-12.3 4.24-18.81z"/><path d="m1353.59 117.95c.01 16.94 9.77 32.35 25.07 39.62v-10.72c-15.97-10.34-20.53-31.67-10.19-47.64 2.64-4.07 6.11-7.55 10.19-10.19v-10.71c-15.3 7.27-25.06 22.69-25.07 39.64z"/><path d="m946.26 800.55c-10.36 0-18.76 8.41-18.76 18.77 0 4.64 1.72 9.11 4.83 12.56h27.96c6.94-7.7 6.33-19.56-1.37-26.5-3.45-3.11-7.92-4.83-12.56-4.83zm0 28.39c-5.3 0-9.59-4.29-9.59-9.59s4.29-9.59 9.59-9.59 9.59 4.29 9.59 9.59-4.29 9.59-9.59 9.59z"/><path d="m46.02 593.71.14-.28c.22-.55.34-1.14.35-1.74 0-.6-.12-1.19-.35-1.74-.96-2.38-3.67-3.53-6.05-2.57-.16.06-.31.14-.46.22-.91.48-1.63 1.24-2.05 2.18-6.6 14.33-22.07 22.39-37.6 19.58v9.49c2.04.29 4.09.43 6.14.44 17.14-.03 32.7-10.01 39.88-25.57z"/><path d="m37.6 561.14c.76 1.63 2.38 2.69 4.18 2.73 1.9 0 3.6-1.15 4.32-2.91.23-.55.35-1.14.35-1.74s-.12-1.19-.35-1.74l-.14-.28c-7.15-15.57-22.68-25.58-39.81-25.66-2.06 0-4.11.15-6.14.44v9.49c15.55-2.79 31.02 5.3 37.6 19.67z"/><path d="m1341.06 575.41c.02 21.8 16.03 40.28 37.6 43.41v-9.49l-1.04-.17c-15.67-3.5-26.9-17.27-27.21-33.32v-.78c.3-16.05 11.54-29.81 27.21-33.32l1.04-.17v-9.49c-21.54 3.13-37.53 21.56-37.6 43.33z"/><path d="m20.52 280.88c2.5.16 4.66-1.75 4.82-4.25s-1.75-4.66-4.25-4.82c-.19-.01-.38-.01-.56 0h-7.99c-4.89 0-9.51-2.24-12.53-6.09v11.77c3.8 2.22 8.13 3.39 12.53 3.39h7.99z"/><path d="m13.16 239.82h7.36c2.5.16 4.66-1.75 4.82-4.25s-1.75-4.66-4.25-4.82c-.19-.01-.38-.01-.56 0h-7.21c-4.68.01-9.28 1.27-13.32 3.64v11.68c3.22-3.96 8.06-6.25 13.16-6.25z"/><path d="m1366.16 254.62c-.45 9.36 4.38 18.19 12.5 22.87v-11.77c-2.49-3.09-3.73-6.99-3.48-10.95.22-3.2 1.43-6.24 3.48-8.7v-11.68c-7.33 4.18-12.04 11.8-12.5 20.23z"/><path d="m15.98 807.91v7.38c-.16 2.5 1.75 4.66 4.25 4.82s4.66-1.75 4.82-4.25c.01-.19.01-.37 0-.56v-7.21c0-13.51-10.44-25.19-23.87-25.82h-1.18v9.05h1.03c8.56.76 15.08 8 14.95 16.59z"/><path d="m1352.65 807.28v8.01c-.16 2.5 1.75 4.66 4.25 4.82s4.66-1.75 4.82-4.25c.01-.19.01-.37 0-.56v-8.01c0-8.84 7.17-15.99 16-15.99.31 0 .62 0 .93.03v-9.1c-13.84-.51-25.48 10.3-25.99 24.14-.01.31-.02.61-.02.92z"/></g></svg>